Coordinates
version=1
nRows=5
nColumns=40
inDegrees=yes

Units are S.I. units (second, meters, Newtons, ...)
Angles are in degrees.

endheader
time	pelvis_tilt	pelvis_list	pelvis_rotation	pelvis_tx	pelvis_ty	pelvis_tz	hip_flexion_r	hip_adduction_r	hip_rotation_r	knee_angle_r	knee_angle_r_beta	ankle_angle_r	subtalar_angle_r	mtp_angle_r	hip_flexion_l	hip_adduction_l	hip_rotation_l	knee_angle_l	knee_angle_l_beta	ankle_angle_l	subtalar_angle_l	mtp_angle_l	lumbar_extension	lumbar_bending	lumbar_rotation	arm_flex_r	arm_add_r	arm_rot_r	elbow_flex_r	pro_sup_r	wrist_flex_r	wrist_dev_r	arm_flex_l	arm_add_l	arm_rot_l	elbow_flex_l	pro_sup_l	wrist_flex_l	wrist_dev_l
     15.61242857	     -2.31737999	     -6.82078135	      4.81368237	      0.91501561	      0.91137064	      0.56601808	     14.47771829	      8.14268562	    -10.03850521	     28.43733581	     28.43733581	     17.96368029	    -13.13848834	      0.92501838	     30.62590510	    -12.99229812	      6.48095750	     66.62789908	     66.62789908	     15.87935959	    -19.55453670	     22.58335970	    -11.37095285	      5.63868366	     -0.17097787	     21.67720971	    -15.15510185	    -14.95301085	     42.11974499	     46.11218429	      0.00000000	      0.00000000	      7.86711188	     -7.60208080	      1.80222604	     25.67739671	     45.96525282	      0.00000000	      0.00000000
     15.63235714	     -2.14664742	     -6.78559576	      5.48188806	      0.91358946	      0.91053655	      0.56605165	     14.19359326	      8.16066432	    -10.21028389	     28.78228937	     28.78228937	     18.36805752	    -13.81181541	      1.12401151	     32.05058807	    -12.72299922	      6.54104267	     64.84584866	     64.84584866	     16.23628712	    -19.56309978	     22.66964240	    -11.46999576	      5.41416863	     -0.28997704	     24.42143992	    -15.05818215	    -14.66232875	     44.99432010	     45.99963344	      0.00000000	      0.00000000	      5.56506465	     -7.24292595	      2.25212483	     24.07092135	     45.84587768	      0.00000000	      0.00000000
     15.65228571	     -2.03423480	     -6.66362959	      6.11566573	      0.91208671	      0.91013721	      0.56575618	     13.85165990	      8.05695455	    -10.41055467	     28.93612228	     28.93612228	     18.73852469	    -14.23593718	      1.27573063	     33.20906857	    -12.33027958	      6.45236747	     62.29560633	     62.29560633	     16.23929163	    -19.54783804	     22.55353639	    -11.58747164	      5.13509800	     -0.26648793	     27.15847182	    -15.07193865	    -14.38034900	     47.92523551	     45.88927107	      0.00000000	      0.00000000	      3.31929751	     -6.91989762	      2.59697671	     22.80785937	     45.74057098	      0.00000000	      0.00000000
     15.67221429	     -2.05871802	     -6.54616903	      6.78580450	      0.91055605	      0.91012691	      0.56505797	     13.49882327	      7.90696405	    -10.75090208	     28.79391368	     28.79391368	     19.03636174	    -14.41885605	      1.54653305	     34.19874831	    -11.82348974	      6.38223336	     59.05570099	     59.05570099	     15.74290785	    -19.51123052	     21.93521192	    -11.57059973	      4.89830831	     -0.33316910	     29.52954119	    -15.16124303	    -13.81207312	     51.84476744	     45.72990525	      0.00000000	      0.00000000	      1.04317535	     -6.70347381	      3.00978459	     21.86187302	     45.61252557	      0.00000000	      0.00000000
     15.69214286	     -2.20649780	     -6.37109346	      7.39755273	      0.90902086	      0.91049477	      0.56406077	     13.15168870	      7.65577458	    -11.13536456	     28.46566948	     28.46566948	     19.29905146	    -14.35757333	      1.95587198	     34.88049514	    -11.25453348	      6.15451963	     55.06936463	     55.06936463	     14.34041157	    -19.43902597	     19.59944865	    -11.51254829	      4.62813892	      0.49924909	     30.68714088	    -16.42500191	    -12.56870826	     57.85445304	     45.46965333	      0.00000000	      0.00000000	     -0.98117645	     -6.60184925	      3.91216187	     22.03617465	     45.37042827	      0.00000000	      0.00000000
